<svg width="28" height="28" viewBox="0 0 28 28" fill="none" xmlns="http://www.w3.org/2000/svg">
<path d="M3.8453 24.0357L11.27 16.6111M20.6196 13.3094L18.3971 19.9769C18.3617 20.0838 18.3009 20.1805 18.2201 20.2589C18.1393 20.3373 18.0407 20.395 17.9328 20.4272L4.30847 24.4767C4.18573 24.5132 4.05534 24.5153 3.93149 24.4828C3.80764 24.4503 3.69508 24.3844 3.60605 24.2924C3.51703 24.2003 3.45495 24.0857 3.42658 23.9608C3.39821 23.8359 3.40463 23.7057 3.44514 23.5842L7.86914 10.3146C7.90084 10.2193 7.95268 10.1319 8.02112 10.0585C8.08956 9.98499 8.17301 9.9271 8.2658 9.88872L14.5506 7.30105C14.6784 7.24829 14.8189 7.23453 14.9545 7.26152C15.0901 7.28851 15.2147 7.35504 15.3125 7.45272L20.4505 12.5919C20.5426 12.6839 20.6073 12.7998 20.6372 12.9266C20.667 13.0533 20.661 13.1859 20.6196 13.3094Z" stroke="#F7A6A4" stroke-width="1.5" stroke-linecap="round" stroke-linejoin="round"/>
<path d="M20.7573 12.8987L24.0566 9.59816C24.4941 9.16059 24.7398 8.56721 24.7398 7.94849C24.7398 7.32977 24.4941 6.73639 24.0566 6.29882L21.5833 3.82316C21.3666 3.60639 21.1094 3.43443 20.8262 3.31711C20.5431 3.19979 20.2396 3.1394 19.9331 3.1394C19.6266 3.1394 19.3231 3.19979 19.0399 3.31711C18.7568 3.43443 18.4995 3.60639 18.2828 3.82316L14.9835 7.12366M13.7445 14.1353C13.5819 13.9728 13.389 13.844 13.1766 13.7561C12.9642 13.6682 12.7366 13.623 12.5068 13.623C12.277 13.6231 12.0494 13.6684 11.8371 13.7564C11.6248 13.8444 11.4319 13.9734 11.2694 14.1359C11.1069 14.2985 10.978 14.4914 10.8901 14.7038C10.8022 14.9161 10.757 15.1437 10.7571 15.3736C10.7571 15.6034 10.8025 15.831 10.8905 16.0433C10.9785 16.2556 11.1074 16.4485 11.27 16.611C11.5983 16.9391 12.0435 17.1234 12.5076 17.1233C12.9718 17.1232 13.4169 16.9387 13.7451 16.6104C14.0732 16.2821 14.2575 15.8369 14.2574 15.3727C14.2573 14.9086 14.0728 14.4635 13.7445 14.1353Z" stroke="#F7A6A4" stroke-width="1.5" stroke-linecap="round" stroke-linejoin="round"/>
</svg>
