<svg width="24" height="24" viewBox="0 0 24 24" fill="none" xmlns="http://www.w3.org/2000/svg">
<path fill-rule="evenodd" clip-rule="evenodd" d="M12 3.75L19.2736 3.95565C20.5588 3.99199 21.6219 4.96765 21.768 6.24505C22.0915 9.07266 22.0915 11.9279 21.768 14.7556C21.6219 16.033 20.5588 17.0086 19.2736 17.0449L13.75 17.2011V19.2503H17C17.4142 19.2503 17.75 19.5861 17.75 20.0003C17.75 20.4145 17.4142 20.7503 17 20.7503H7C6.58579 20.7503 6.25 20.4145 6.25 20.0003C6.25 19.5861 6.58579 19.2503 7 19.2503H10.25V17.2011L4.72636 17.0449C3.44114 17.0086 2.37812 16.033 2.23196 14.7556C1.90844 11.9279 1.90844 9.07266 2.23196 6.24504C2.37812 4.96764 3.44114 3.99199 4.72636 3.95565L12 3.75ZM12 5.2506L4.76875 5.45505C4.22954 5.4703 3.78356 5.87963 3.72224 6.41556C3.41168 9.12987 3.41168 11.8707 3.72224 14.585C3.78356 15.121 4.22954 15.5303 4.76875 15.5455L12 15.75L19.2312 15.5455C19.7704 15.5303 20.2164 15.121 20.2777 14.585C20.5883 11.8707 20.5883 9.12987 20.2777 6.41556C20.2164 5.87963 19.7704 5.4703 19.2312 5.45505L12 5.2506Z" fill="black"/>
</svg>
