<svg width="24" height="24" viewBox="0 0 24 24" fill="none" xmlns="http://www.w3.org/2000/svg">
<path fill-rule="evenodd" clip-rule="evenodd" d="M12 3.07946L9.78719 5.36896C9.55166 5.61265 9.22728 5.75026 8.88837 5.75026H5.74999V8.88865C5.74999 9.22755 5.61237 9.55193 5.36869 9.78746L3.07918 12.0003L5.36869 14.2131C5.61237 14.4486 5.74999 14.773 5.74999 15.1119V18.2503H8.88837C9.22728 18.2503 9.55166 18.3879 9.78718 18.6316L12 20.9211L14.2128 18.6316C14.4483 18.3879 14.7727 18.2503 15.1116 18.2503H18.25V15.1119C18.25 14.773 18.3876 14.4486 18.6313 14.2131L20.9208 12.0003L18.6313 9.78747C18.3876 9.55194 18.25 9.22756 18.25 8.88865V5.75026H15.1116C14.7727 5.75026 14.4483 5.61265 14.2128 5.36896L12 3.07946ZM11.1012 1.85103C11.5925 1.34263 12.4074 1.34263 12.8988 1.85103L15.2176 4.25026H18.5C19.1903 4.25026 19.75 4.8099 19.75 5.50026V8.7826L22.1492 11.1014C22.6576 11.5928 22.6576 12.4077 22.1492 12.8991L19.75 15.2179V18.5003C19.75 19.1906 19.1903 19.7503 18.5 19.7503H15.2177L12.8988 22.1495C12.4074 22.6579 11.5925 22.6579 11.1012 22.1495L8.78232 19.7503H5.49999C4.80963 19.7503 4.24999 19.1906 4.24999 18.5003V15.2179L1.85075 12.8991C1.34235 12.4077 1.34235 11.5928 1.85075 11.1014L4.24999 8.78259V5.50026C4.24999 4.8099 4.80963 4.25026 5.49999 4.25026H8.78232L11.1012 1.85103Z" fill="black"/>
<path fill-rule="evenodd" clip-rule="evenodd" d="M7.24999 12.0003C7.24999 9.37691 9.37663 7.25026 12 7.25026C14.6233 7.25026 16.75 9.37691 16.75 12.0003C16.75 14.6236 14.6233 16.7503 12 16.7503C9.37663 16.7503 7.24999 14.6236 7.24999 12.0003ZM12 8.75026C10.2051 8.75026 8.74999 10.2053 8.74999 12.0003C8.74999 13.7952 10.2051 15.2503 12 15.2503C13.7949 15.2503 15.25 13.7952 15.25 12.0003C15.25 10.2053 13.7949 8.75026 12 8.75026Z" fill="black"/>
</svg>
