<svg width="24" height="24" viewBox="0 0 24 24" fill="none" xmlns="http://www.w3.org/2000/svg">
<path fill-rule="evenodd" clip-rule="evenodd" d="M12.6448 5.26411C12.2481 5.02524 11.7519 5.02524 11.3552 5.26411L10.8389 5.575C9.45765 6.40671 7.90703 6.91708 6.30183 7.06831L5.97655 7.09895C5.84813 7.11105 5.75 7.21887 5.75 7.34785V8.99174C5.75 11.4993 6.76803 13.8994 8.57088 15.6422L11.8262 18.7892C11.9231 18.8829 12.0769 18.8829 12.1738 18.7892L15.4291 15.6422C17.232 13.8994 18.25 11.4993 18.25 8.99174V7.34785C18.25 7.21887 18.1519 7.11105 18.0235 7.09896L17.6982 7.06831C16.093 6.91708 14.5423 6.40671 13.1611 5.575L12.6448 5.26411ZM10.5814 3.97909C11.4541 3.45358 12.5459 3.45358 13.4186 3.97909L13.9349 4.28999C15.1234 5.00564 16.4576 5.44479 17.8389 5.57492L18.1641 5.60557C19.0631 5.69026 19.75 6.44495 19.75 7.34785V8.99174C19.75 11.9059 18.5669 14.6952 16.4717 16.7207L13.2163 19.8677C12.538 20.5234 11.462 20.5234 10.7837 19.8677L7.52832 16.7207C5.43311 14.6952 4.25 11.9059 4.25 8.99174V7.34785C4.25 6.44495 4.93693 5.69026 5.83585 5.60557L6.16113 5.57492C7.54235 5.44479 8.87661 5.00564 10.0651 4.28999L10.5814 3.97909Z" fill="black"/>
</svg>
