<svg width="24" height="24" viewBox="0 0 24 24" fill="none" xmlns="http://www.w3.org/2000/svg">
<path d="M15.5 11.9996C15.5 11.1712 16.1716 10.4996 17 10.4996C17.8284 10.4996 18.5 11.1712 18.5 11.9996C18.5 12.8281 17.8284 13.4996 17 13.4996C16.1716 13.4996 15.5 12.8281 15.5 11.9996Z" fill="black"/>
<path fill-rule="evenodd" clip-rule="evenodd" d="M20.4413 6.67366C19.7836 5.12799 18.3302 4.01686 16.6007 3.83487L15.9488 3.76627C12.6565 3.41982 9.33575 3.44266 6.04851 3.83438L5.61657 3.88586C3.94777 4.08471 2.62552 5.38852 2.40324 7.05436C1.96528 10.3367 1.96528 13.6626 2.40324 16.9449C2.62552 18.6108 3.94777 19.9146 5.61657 20.1134L6.04851 20.1649C9.33575 20.5566 12.6565 20.5795 15.9488 20.233L16.6007 20.1644C18.3302 19.9824 19.7836 18.8713 20.4413 17.3256C21.4806 17.0162 22.2738 16.1152 22.404 15.002C22.6373 13.0072 22.6373 10.9921 22.404 8.99728C22.2738 7.88405 21.4806 6.98308 20.4413 6.67366ZM15.7918 5.25803C12.6107 4.92328 9.40218 4.94536 6.226 5.32385L5.79406 5.37532C4.80524 5.49315 4.02177 6.26569 3.89007 7.25275C3.46967 10.4034 3.46967 13.5959 3.89007 16.7465C4.02177 17.7336 4.80525 18.5061 5.79406 18.624L6.226 18.6754C9.40218 19.0539 12.6107 19.076 15.7918 18.7413L16.4437 18.6727C17.2942 18.5832 18.0468 18.1639 18.5683 17.5416C17.0602 17.6295 15.532 17.5902 14.0417 17.4237C12.7724 17.2818 11.7458 16.2823 11.5961 15.002C11.3628 13.0072 11.3628 10.9921 11.5961 8.99727C11.7458 7.71701 12.7724 6.71747 14.0417 6.57561C15.532 6.40905 17.0602 6.36975 18.5683 6.4577C18.0468 5.83538 17.2942 5.41613 16.4437 5.32663L15.7918 5.25803ZM19.2774 8.01434C19.278 8.01818 19.2786 8.02202 19.2792 8.02586L19.2852 8.06475L19.4839 8.0339C19.5867 8.04407 19.6893 8.05488 19.7917 8.06632C20.3791 8.13198 20.8468 8.59612 20.9141 9.17153C21.1339 11.0505 21.1339 12.9488 20.9141 14.8278C20.8468 15.4032 20.3791 15.8673 19.7917 15.933C19.6893 15.9444 19.5866 15.9552 19.4839 15.9654L19.2852 15.9345L19.2792 15.9734C19.2786 15.9773 19.278 15.9811 19.2774 15.9849C17.5987 16.1368 15.8772 16.1195 14.2084 15.933C13.621 15.8673 13.1532 15.4032 13.0859 14.8278C12.8661 12.9488 12.8661 11.0505 13.0859 9.17153C13.1532 8.59612 13.621 8.13198 14.2084 8.06632C15.8772 7.87981 17.5987 7.86248 19.2774 8.01434Z" fill="black"/>
</svg>
